<?xml version="1.0" encoding="utf-8"?>
<!-- Generator: Adobe Illustrator 16.0.3, SVG Export Plug-In . SVG Version: 6.00 Build 0)  -->
<!DOCTYPE svg PUBLIC "-//W3C//DTD SVG 1.1//EN" "http://www.w3.org/Graphics/SVG/1.1/DTD/svg11.dtd">
<svg version="1.1" id="Capa_1" xmlns="http://www.w3.org/2000/svg" xmlns:xlink="http://www.w3.org/1999/xlink" x="0px" y="0px"
	 width="85.456px" height="69.521px" viewBox="0 0 85.456 69.521" enable-background="new 0 0 85.456 69.521" xml:space="preserve">
<g>
	<g>
		<path fill="#FFFFFF" d="M85.456,8.227c-3.151,1.395-6.532,2.335-10.072,2.757c3.621-2.168,6.4-5.604,7.714-9.703
			c-3.393,2.013-7.146,3.472-11.139,4.257C68.763,2.13,64.207,0,59.158,0c-9.684,0-17.53,7.854-17.53,17.549
			c0,1.371,0.16,2.71,0.454,3.996c-14.566-0.729-27.483-7.72-36.135-18.337c-1.512,2.587-2.373,5.613-2.373,8.824
			c0,6.085,3.098,11.464,7.796,14.607c-2.871-0.094-5.577-0.879-7.938-2.197c0,0.073,0,0.152,0,0.223
			c0,8.502,6.045,15.592,14.064,17.209c-1.466,0.398-3.018,0.615-4.62,0.615c-1.125,0-2.227-0.111-3.296-0.313
			c2.232,6.97,8.703,12.05,16.377,12.188c-6,4.708-13.564,7.515-21.771,7.515c-1.421,0-2.815-0.082-4.187-0.246
			c7.758,4.98,16.972,7.89,26.871,7.89c32.247,0,49.884-26.745,49.884-49.937c0-0.762-0.021-1.518-0.056-2.273
			C80.133,14.836,83.104,11.748,85.456,8.227L85.456,8.227z"/>
	</g>
</g>
</svg>
