<?xml version="1.0" encoding="utf-8"?>
<!-- Generator: Adobe Illustrator 25.0.0, SVG Export Plug-In . SVG Version: 6.00 Build 0)  -->
<svg version="1.1" id="Capa_1" xmlns="http://www.w3.org/2000/svg" xmlns:xlink="http://www.w3.org/1999/xlink" x="0px" y="0px"
	 viewBox="0 0 610.5 633" style="enable-background:new 0 0 610.5 633;" xml:space="preserve">
<path d="M502.95,244.95c-4.67-3.33-10.27-5.06-15.94-5.06c-2.63,0-5.28,0.37-7.85,1.13c-9.87,2.92-20.46,5.55-31.64,7.89
	c0.42-32.15,0.77-68.84,0.29-76.38c-4.2-65.19-60.42-120.52-127.99-125.96c-4.24-0.34-8.48-0.53-12.6-0.58
	c-36.84-0.38-69.36,11.13-96.64,34.21c-27.08,22.9-44.86,56.66-47.58,90.3c-0.56,6.91-0.57,45.47-0.51,78.3
	c-11-2.32-21.42-4.91-31.14-7.78c-2.58-0.76-5.22-1.13-7.86-1.13c-5.67,0-11.27,1.74-15.94,5.06c-6.84,4.87-10.87,12.57-10.87,20.76
	v295.48c0,14.26,12,25.82,26.81,25.82h363.52c14.8,0,26.81-11.56,26.81-25.82V265.71C513.82,257.52,509.78,249.82,502.95,244.95z
	 M342.02,486.35l-73.21,0l11.18-45.53c-10.78-7.57-17.79-19.82-17.79-33.65c0-22.99,19.35-41.63,43.21-41.63
	s43.21,18.64,43.21,41.63c0,13.83-7.01,26.08-17.79,33.65L342.02,486.35z M305.25,262.19c-28.62,0-56.45-1.42-82.56-4.14
	c0.49-41.65,2.74-98.4,12.21-113.83c15.1-24.59,39.96-39.04,68.21-39.64c1.01-0.02,2-0.03,2.98-0.02
	c28.64,0.29,53.74,14.46,68.86,38.87c10.19,16.45,12.47,71.2,12.53,114.65C361.46,260.78,333.75,262.19,305.25,262.19z"/>
</svg>
