<?xml version="1.0" encoding="utf-8"?>
<!-- Generator: Adobe Illustrator 16.0.3, SVG Export Plug-In . SVG Version: 6.00 Build 0)  -->
<!DOCTYPE svg PUBLIC "-//W3C//DTD SVG 1.1//EN" "http://www.w3.org/Graphics/SVG/1.1/DTD/svg11.dtd">
<svg version="1.1" id="Capa_1" xmlns="http://www.w3.org/2000/svg" xmlns:xlink="http://www.w3.org/1999/xlink" x="0px" y="0px"
	 width="89.15px" height="89.244px" viewBox="0 0 89.15 89.244" enable-background="new 0 0 89.15 89.244" xml:space="preserve">
<g>
	<path fill="#FFFFFF" d="M44.571,0C19.953,0,0,19.978,0,44.619c0,24.647,19.953,44.625,44.571,44.625
		c24.621,0,44.58-19.978,44.58-44.625C89.15,19.978,69.192,0,44.571,0z M56.706,46.913h-8.051V72.85H36.716V46.913h-5.672V36.759
		h5.675v-6.565c0-4.696,2.235-12.062,12.051-12.062l8.834,0.041v9.855h-6.413c-1.056,0-2.534,0.524-2.534,2.771v5.971h9.089
		L56.706,46.913z"/>
</g>
</svg>
