<?xml version="1.0" encoding="utf-8"?>
<!-- Generator: Adobe Illustrator 16.0.3, SVG Export Plug-In . SVG Version: 6.00 Build 0)  -->
<!DOCTYPE svg PUBLIC "-//W3C//DTD SVG 1.1//EN" "http://www.w3.org/Graphics/SVG/1.1/DTD/svg11.dtd">
<svg version="1.1" id="Capa_1" xmlns="http://www.w3.org/2000/svg" xmlns:xlink="http://www.w3.org/1999/xlink" x="0px" y="0px"
	 width="78.681px" height="75.724px" viewBox="0 0 78.681 75.724" enable-background="new 0 0 78.681 75.724" xml:space="preserve">
<g>
	<g>
		<path fill="#FFFFFF" d="M57.832,0H23.889C12.375,0,3.037,9.349,3.037,20.868v33.984c0,11.525,9.338,20.871,20.852,20.871h33.939
			c11.518,0,20.854-9.346,20.854-20.871V20.868C78.684,9.352,69.349,0,57.832,0z M72.571,54.765c0,8.191-6.64,14.839-14.824,14.839
			H23.977c-8.187,0-14.821-6.647-14.821-14.839V20.956c0-8.194,6.637-14.839,14.821-14.839h33.771
			c8.187,0,14.824,6.645,14.824,14.839V54.765z"/>
		<path fill="#FFFFFF" d="M40.86,17.903c-11.01,0-19.935,8.938-19.935,19.96s8.925,19.954,19.935,19.954s19.935-8.936,19.935-19.954
			C60.795,26.842,51.87,17.903,40.86,17.903z M40.86,50.874c-7.182,0-12.999-5.824-12.999-13.011
			c0-7.192,5.817-13.017,12.999-13.017s12.999,5.824,12.999,13.017C53.859,45.05,48.042,50.874,40.86,50.874z"/>
		<path fill="#FFFFFF" d="M65.946,17.241c0,2.47-2.005,4.477-4.466,4.477c-2.473,0-4.477-2.007-4.477-4.477
			c0-2.476,2.004-4.477,4.477-4.477C63.94,12.765,65.946,14.766,65.946,17.241z"/>
	</g>
</g>
</svg>
